<?xml version="1.0" encoding="UTF-8" standalone="no"?><svg xmlns="http://www.w3.org/2000/svg" xmlns:xlink="http://www.w3.org/1999/xlink" contentScriptType="application/ecmascript" contentStyleType="text/css" height="214px" preserveAspectRatio="none" style="width:348px;height:214px;" version="1.1" viewBox="0 0 348 214" width="348px" zoomAndPan="magnify"><defs><filter height="300%" id="fxn8chv" width="300%" x="-1" y="-1"><feGaussianBlur result="blurOut" stdDeviation="2.0"/><feColorMatrix in="blurOut" result="blurOut2" type="matrix" values="0 0 0 0 0 0 0 0 0 0 0 0 0 0 0 0 0 0 .4 0"/><feOffset dx="4.0" dy="4.0" in="blurOut2" result="blurOut3"/><feBlend in="SourceGraphic" in2="blurOut3" mode="normal"/></filter></defs><g><text fill="#000000" font-family="sans-serif" font-size="14" font-weight="bold" lengthAdjust="spacingAndGlyphs" textLength="335" x="12" y="23.3369">SocketIO message for transmitting serial data</text><line style="stroke: #383838; stroke-width: 1.0; stroke-dasharray: 5.0,5.0;" x1="62" x2="62" y1="68.5801" y2="175.9595"/><line style="stroke: #383838; stroke-width: 1.0; stroke-dasharray: 5.0,5.0;" x1="238" x2="238" y1="68.5801" y2="175.9595"/><line style="stroke: #383838; stroke-width: 1.0; stroke-dasharray: 5.0,5.0;" x1="304" x2="304" y1="68.5801" y2="175.9595"/><rect fill="#F8F8F8" filter="url(#fxn8chv)" height="30.29" style="stroke: #383838; stroke-width: 1.5;" width="69" x="26" y="33.29"/><text fill="#000000" font-family="sans-serif" font-size="14" lengthAdjust="spacingAndGlyphs" textLength="55" x="33" y="53.5928">Browser</text><rect fill="#F8F8F8" filter="url(#fxn8chv)" height="30.29" style="stroke: #383838; stroke-width: 1.5;" width="69" x="26" y="174.9595"/><text fill="#000000" font-family="sans-serif" font-size="14" lengthAdjust="spacingAndGlyphs" textLength="55" x="33" y="195.2622">Browser</text><rect fill="#F8F8F8" filter="url(#fxn8chv)" height="30.29" style="stroke: #383838; stroke-width: 1.5;" width="49" x="212" y="33.29"/><text fill="#000000" font-family="sans-serif" font-size="14" lengthAdjust="spacingAndGlyphs" textLength="35" x="219" y="53.5928">Flask</text><rect fill="#F8F8F8" filter="url(#fxn8chv)" height="30.29" style="stroke: #383838; stroke-width: 1.5;" width="49" x="212" y="174.9595"/><text fill="#000000" font-family="sans-serif" font-size="14" lengthAdjust="spacingAndGlyphs" textLength="35" x="219" y="195.2622">Flask</text><rect fill="#F8F8F8" filter="url(#fxn8chv)" height="30.29" style="stroke: #383838; stroke-width: 1.5;" width="54" x="275" y="33.29"/><text fill="#000000" font-family="sans-serif" font-size="14" lengthAdjust="spacingAndGlyphs" textLength="40" x="282" y="53.5928">Board</text><rect fill="#F8F8F8" filter="url(#fxn8chv)" height="30.29" style="stroke: #383838; stroke-width: 1.5;" width="54" x="275" y="174.9595"/><text fill="#000000" font-family="sans-serif" font-size="14" lengthAdjust="spacingAndGlyphs" textLength="40" x="282" y="195.2622">Board</text><polygon fill="#383838" points="226.5,95.5801,236.5,99.5801,226.5,103.5801,230.5,99.5801" style="stroke: #383838; stroke-width: 1.0;"/><line style="stroke: #383838; stroke-width: 1.0; stroke-dasharray: 2.0,2.0;" x1="62.5" x2="232.5" y1="99.5801" y2="99.5801"/><text fill="#000000" font-family="sans-serif" font-size="13" lengthAdjust="spacingAndGlyphs" textLength="115" x="69.5" y="94.9326">browser_to_router</text><polygon fill="#383838" points="292,124.7065,302,128.7065,292,132.7065,296,128.7065" style="stroke: #383838; stroke-width: 1.0;"/><line style="stroke: #383838; stroke-width: 1.0; stroke-dasharray: 2.0,2.0;" x1="238.5" x2="298" y1="128.7065" y2="128.7065"/><text fill="#000000" font-family="sans-serif" font-size="13" lengthAdjust="spacingAndGlyphs" textLength="39" x="245.5" y="124.0591">RS232</text><polygon fill="#383838" points="73.5,153.833,63.5,157.833,73.5,161.833,69.5,157.833" style="stroke: #383838; stroke-width: 1.0;"/><line style="stroke: #383838; stroke-width: 1.0; stroke-dasharray: 2.0,2.0;" x1="67.5" x2="237.5" y1="157.833" y2="157.833"/><text fill="#000000" font-family="sans-serif" font-size="13" lengthAdjust="spacingAndGlyphs" textLength="152" x="79.5" y="153.1855">router_to_browser_echo</text></g>
<g transform="translate(0.000000,17.000000) scale(0.100000,-0.100000)"
fill="#000000" stroke="none">
<path d="M21 157 c-29 -35 -16 -97 20 -97 15 0 19 -5 15 -16 -3 -9 -6 -20 -6
-25 0 -5 -4 -9 -10 -9 -14 0 -12 27 3 33 6 3 2 6 -10 6 -30 1 -31 -35 -3 -44
28 -9 47 9 55 51 3 20 9 42 12 50 3 8 -1 14 -11 14 -9 0 -16 -8 -16 -19 0 -26
-15 -34 -30 -16 -13 16 -6 48 16 70 14 13 13 15 -4 15 -11 0 -25 -6 -31 -13z"/>
<path d="M80 150 c0 -13 5 -20 13 -17 6 2 12 10 12 17 0 7 -6 15 -12 18 -8 2
-13 -5 -13 -18z"/>
<path d="M347 164 c-13 -13 -7 -24 14 -24 11 0 19 5 17 12 -5 14 -22 21 -31
12z"/>
<path d="M103 85 c-9 -40 -8 -45 8 -45 13 0 19 9 21 33 2 24 7 31 21 29 10 -2
17 3 17 13 0 10 -9 15 -28 15 -26 0 -30 -5 -39 -45z"/>
<path d="M175 101 c-24 -48 -13 -59 64 -60 63 -1 69 1 79 25 15 31 15 64 1 64
-6 0 -8 -8 -5 -18 4 -10 -1 -27 -10 -38 -14 -18 -15 -17 -9 19 5 29 3 37 -9
37 -9 0 -18 -13 -22 -35 -3 -19 -10 -35 -14 -35 -4 0 -4 16 0 35 8 35 8 35
-26 35 -27 0 -36 -6 -49 -29z m47 -6 c-5 -28 -22 -44 -22 -21 0 21 11 46 20
46 4 0 5 -11 2 -25z"/>
<path d="M340 116 c0 -7 -3 -28 -6 -45 -6 -26 -3 -31 13 -31 10 0 25 6 32 12
11 10 13 10 7 1 -5 -9 3 -13 28 -13 25 0 36 4 36 15 0 8 -4 15 -10 15 -5 0
-10 -4 -10 -10 0 -5 -5 -10 -11 -10 -6 0 -2 12 9 28 36 51 36 52 -2 52 -25 0
-36 -4 -36 -15 0 -8 5 -15 10 -15 6 0 10 5 10 12 0 6 3 9 6 6 9 -10 -19 -46
-39 -52 -17 -4 -18 -1 -13 30 6 27 4 34 -9 34 -8 0 -15 -6 -15 -14z"/>
<path d="M472 118 c-7 -7 -12 -27 -12 -46 0 -30 2 -33 27 -30 17 2 32 12 39
27 7 13 18 28 26 33 10 8 9 8 -4 4 -12 -3 -18 0 -18 9 0 18 -41 20 -58 3z m29
-51 c-13 -13 -15 11 -4 40 7 16 8 15 11 -6 2 -13 -1 -28 -7 -34z"/>
</g>
</svg>